<svg width="138" height="30" viewBox="0 0 138 30" fill="none" xmlns="http://www.w3.org/2000/svg">
<path d="M8.8125 5.82812C10.4167 5.82812 11.9219 6.22917 13.3281 7.03125C14.7448 7.83333 15.849 8.92188 16.6406 10.2969C17.4323 11.6719 17.8281 13.1562 17.8281 14.75C17.8281 16.3542 17.4271 17.8542 16.625 19.25C15.8333 20.6458 14.75 21.7396 13.375 22.5312C12 23.3125 10.4844 23.7031 8.82812 23.7031C6.39062 23.7031 4.30729 22.8385 2.57812 21.1094C0.859375 19.3698 0 17.2604 0 14.7812C0 12.125 0.973958 9.91146 2.92188 8.14062C4.63021 6.59896 6.59375 5.82812 8.8125 5.82812ZM8.875 9.84375C7.55208 9.84375 6.44792 10.3073 5.5625 11.2344C4.6875 12.151 4.25 13.3281 4.25 14.7656C4.25 16.2448 4.68229 17.4427 5.54688 18.3594C6.42188 19.276 7.52604 19.7344 8.85938 19.7344C10.1927 19.7344 11.3021 19.2708 12.1875 18.3438C13.0729 17.4167 13.5156 16.224 13.5156 14.7656C13.5156 13.3073 13.0781 12.125 12.2031 11.2188C11.3385 10.3021 10.2292 9.84375 8.875 9.84375ZM25.5625 6.26562V8.14062C26.3333 7.36979 27.1667 6.79167 28.0625 6.40625C28.9583 6.02083 29.9167 5.82812 30.9375 5.82812C33.1562 5.82812 35.0417 6.66667 36.5938 8.34375C38.1458 10.0208 38.9219 12.1719 38.9219 14.7969C38.9219 17.3281 38.1198 19.4479 36.5156 21.1562C34.9115 22.8542 33.0104 23.7031 30.8125 23.7031C29.8333 23.7031 28.9219 23.5312 28.0781 23.1875C27.2344 22.8333 26.3958 22.2604 25.5625 21.4688V29.4844H21.3281V6.26562H25.5625ZM30.0469 9.76562C28.7031 9.76562 27.5885 10.224 26.7031 11.1406C25.8177 12.0573 25.375 13.2552 25.375 14.7344C25.375 16.2448 25.8177 17.4688 26.7031 18.4062C27.5885 19.3333 28.7031 19.7969 30.0469 19.7969C31.349 19.7969 32.4427 19.3229 33.3281 18.375C34.224 17.4271 34.6719 16.2188 34.6719 14.75C34.6719 13.2917 34.2344 12.099 33.3594 11.1719C32.4844 10.2344 31.3802 9.76562 30.0469 9.76562ZM59.4844 16H45.7812C45.9792 17.2083 46.5052 18.1719 47.3594 18.8906C48.224 19.599 49.3229 19.9531 50.6562 19.9531C52.25 19.9531 53.6198 19.3958 54.7656 18.2812L58.3594 19.9688C57.4635 21.2396 56.3906 22.1823 55.1406 22.7969C53.8906 23.401 52.4062 23.7031 50.6875 23.7031C48.0208 23.7031 45.849 22.8646 44.1719 21.1875C42.4948 19.5 41.6562 17.3906 41.6562 14.8594C41.6562 12.2656 42.4896 10.1146 44.1562 8.40625C45.8333 6.6875 47.9323 5.82812 50.4531 5.82812C53.1302 5.82812 55.3073 6.6875 56.9844 8.40625C58.6615 10.1146 59.5 12.375 59.5 15.1875L59.4844 16ZM55.2031 12.6406C54.9219 11.6927 54.3646 10.9219 53.5312 10.3281C52.7083 9.73438 51.75 9.4375 50.6562 9.4375C49.4688 9.4375 48.4271 9.77083 47.5312 10.4375C46.9688 10.8542 46.4479 11.5885 45.9688 12.6406H55.2031ZM62.9531 6.26562H67.2031V8C68.1719 7.1875 69.0469 6.625 69.8281 6.3125C70.6198 5.98958 71.4271 5.82812 72.25 5.82812C73.9375 5.82812 75.3698 6.41667 76.5469 7.59375C77.5365 8.59375 78.0312 10.0729 78.0312 12.0312V23.2656H73.8125V15.8125C73.8125 13.7812 73.7188 12.4323 73.5312 11.7656C73.3542 11.099 73.0365 10.5938 72.5781 10.25C72.1302 9.89583 71.5729 9.71875 70.9062 9.71875C70.0417 9.71875 69.2969 10.0104 68.6719 10.5938C68.0573 11.1667 67.6302 11.9635 67.3906 12.9844C67.2656 13.5156 67.2031 14.6667 67.2031 16.4375V23.2656H62.9531V6.26562ZM90.1562 5.82812C91.7604 5.82812 93.2656 6.22917 94.6719 7.03125C96.0885 7.83333 97.1927 8.92188 97.9844 10.2969C98.776 11.6719 99.1719 13.1562 99.1719 14.75C99.1719 16.3542 98.7708 17.8542 97.9688 19.25C97.1771 20.6458 96.0938 21.7396 94.7188 22.5312C93.3438 23.3125 91.8281 23.7031 90.1719 23.7031C87.7344 23.7031 85.651 22.8385 83.9219 21.1094C82.2031 19.3698 81.3438 17.2604 81.3438 14.7812C81.3438 12.125 82.3177 9.91146 84.2656 8.14062C85.974 6.59896 87.9375 5.82812 90.1562 5.82812ZM90.2188 9.84375C88.8958 9.84375 87.7917 10.3073 86.9062 11.2344C86.0312 12.151 85.5938 13.3281 85.5938 14.7656C85.5938 16.2448 86.026 17.4427 86.8906 18.3594C87.7656 19.276 88.8698 19.7344 90.2031 19.7344C91.5365 19.7344 92.6458 19.2708 93.5312 18.3438C94.4167 17.4167 94.8594 16.224 94.8594 14.7656C94.8594 13.3073 94.4219 12.125 93.5469 11.2188C92.6823 10.3021 91.5729 9.84375 90.2188 9.84375ZM103.188 0H107.438V6.26562H109.969V9.9375H107.438V23.2656H103.188V9.9375H101V6.26562H103.188V0ZM129.297 16H115.594C115.792 17.2083 116.318 18.1719 117.172 18.8906C118.036 19.599 119.135 19.9531 120.469 19.9531C122.062 19.9531 123.432 19.3958 124.578 18.2812L128.172 19.9688C127.276 21.2396 126.203 22.1823 124.953 22.7969C123.703 23.401 122.219 23.7031 120.5 23.7031C117.833 23.7031 115.661 22.8646 113.984 21.1875C112.307 19.5 111.469 17.3906 111.469 14.8594C111.469 12.2656 112.302 10.1146 113.969 8.40625C115.646 6.6875 117.745 5.82812 120.266 5.82812C122.943 5.82812 125.12 6.6875 126.797 8.40625C128.474 10.1146 129.312 12.375 129.312 15.1875L129.297 16ZM125.016 12.6406C124.734 11.6927 124.177 10.9219 123.344 10.3281C122.521 9.73438 121.562 9.4375 120.469 9.4375C119.281 9.4375 118.24 9.77083 117.344 10.4375C116.781 10.8542 116.26 11.5885 115.781 12.6406H125.016ZM135.094 18.8125C135.771 18.8125 136.349 19.0521 136.828 19.5312C137.307 20 137.547 20.5729 137.547 21.25C137.547 21.9271 137.307 22.5052 136.828 22.9844C136.349 23.4635 135.771 23.7031 135.094 23.7031C134.417 23.7031 133.839 23.4635 133.359 22.9844C132.88 22.5052 132.641 21.9271 132.641 21.25C132.641 20.5729 132.88 20 133.359 19.5312C133.839 19.0521 134.417 18.8125 135.094 18.8125Z" fill="black"/>
</svg>
