<svg width="39" height="9" viewBox="0 0 39 9" fill="none" xmlns="http://www.w3.org/2000/svg">
<path d="M0 0H1.59961V8.83594H0V0ZM9.43945 6.11133H4.30078C4.375 6.56445 4.57227 6.92578 4.89258 7.19531C5.2168 7.46094 5.62891 7.59375 6.12891 7.59375C6.72656 7.59375 7.24023 7.38477 7.66992 6.9668L9.01758 7.59961C8.68164 8.07617 8.2793 8.42969 7.81055 8.66016C7.3418 8.88672 6.78516 9 6.14062 9C5.14062 9 4.32617 8.68555 3.69727 8.05664C3.06836 7.42383 2.75391 6.63281 2.75391 5.68359C2.75391 4.71094 3.06641 3.9043 3.69141 3.26367C4.32031 2.61914 5.10742 2.29688 6.05273 2.29688C7.05664 2.29688 7.87305 2.61914 8.50195 3.26367C9.13086 3.9043 9.44531 4.75195 9.44531 5.80664L9.43945 6.11133ZM7.83398 4.85156C7.72852 4.49609 7.51953 4.20703 7.20703 3.98438C6.89844 3.76172 6.53906 3.65039 6.12891 3.65039C5.68359 3.65039 5.29297 3.77539 4.95703 4.02539C4.74609 4.18164 4.55078 4.45703 4.37109 4.85156H7.83398ZM10.166 2.46094H12.0234L13.2715 4.20117L14.5371 2.46094H16.377L14.1973 5.47852L16.6465 8.83594H14.7891L13.2715 6.74414L11.7715 8.83594H9.9375L12.3516 5.47852L10.166 2.46094ZM20.4609 2.29688C21.0625 2.29688 21.627 2.44727 22.1543 2.74805C22.6855 3.04883 23.0996 3.45703 23.3965 3.97266C23.6934 4.48828 23.8418 5.04492 23.8418 5.64258C23.8418 6.24414 23.6914 6.80664 23.3906 7.33008C23.0938 7.85352 22.6875 8.26367 22.1719 8.56055C21.6562 8.85352 21.0879 9 20.4668 9C19.5527 9 18.7715 8.67578 18.123 8.02734C17.4785 7.375 17.1562 6.58398 17.1562 5.6543C17.1562 4.6582 17.5215 3.82812 18.252 3.16406C18.8926 2.58594 19.6289 2.29688 20.4609 2.29688ZM20.4844 3.80273C19.9883 3.80273 19.5742 3.97656 19.2422 4.32422C18.9141 4.66797 18.75 5.10938 18.75 5.64844C18.75 6.20312 18.9121 6.65234 19.2363 6.99609C19.5645 7.33984 19.9785 7.51172 20.4785 7.51172C20.9785 7.51172 21.3945 7.33789 21.7266 6.99023C22.0586 6.64258 22.2246 6.19531 22.2246 5.64844C22.2246 5.10156 22.0605 4.6582 21.7324 4.31836C21.4082 3.97461 20.9922 3.80273 20.4844 3.80273ZM24.7793 2.46094H26.1504V3.26367C26.2988 2.94727 26.4961 2.70703 26.7422 2.54297C26.9883 2.37891 27.2578 2.29688 27.5508 2.29688C27.7578 2.29688 27.9746 2.35156 28.2012 2.46094L27.7031 3.83789C27.5156 3.74414 27.3613 3.69727 27.2402 3.69727C26.9941 3.69727 26.7852 3.84961 26.6133 4.1543C26.4453 4.45898 26.3613 5.05664 26.3613 5.94727L26.3672 6.25781V8.83594H24.7793V2.46094ZM33.709 2.46094H35.3027V8.83594H33.709V8.16211C33.3965 8.45898 33.082 8.67383 32.7656 8.80664C32.4531 8.93555 32.1133 9 31.7461 9C30.9219 9 30.209 8.68164 29.6074 8.04492C29.0059 7.4043 28.7051 6.60938 28.7051 5.66016C28.7051 4.67578 28.9961 3.86914 29.5781 3.24023C30.1602 2.61133 30.8672 2.29688 31.6992 2.29688C32.082 2.29688 32.4414 2.36914 32.7773 2.51367C33.1133 2.6582 33.4238 2.875 33.709 3.16406V2.46094ZM32.0273 3.77344C31.5312 3.77344 31.1191 3.94922 30.791 4.30078C30.4629 4.64844 30.2988 5.0957 30.2988 5.64258C30.2988 6.19336 30.4648 6.64648 30.7969 7.00195C31.1328 7.35742 31.5449 7.53516 32.0332 7.53516C32.5371 7.53516 32.9551 7.36133 33.2871 7.01367C33.6191 6.66211 33.7852 6.20312 33.7852 5.63672C33.7852 5.08203 33.6191 4.63281 33.2871 4.28906C32.9551 3.94531 32.5352 3.77344 32.0273 3.77344ZM37.793 7.16602C38.0469 7.16602 38.2637 7.25586 38.4434 7.43555C38.623 7.61133 38.7129 7.82617 38.7129 8.08008C38.7129 8.33398 38.623 8.55078 38.4434 8.73047C38.2637 8.91016 38.0469 9 37.793 9C37.5391 9 37.3223 8.91016 37.1426 8.73047C36.9629 8.55078 36.873 8.33398 36.873 8.08008C36.873 7.82617 36.9629 7.61133 37.1426 7.43555C37.3223 7.25586 37.5391 7.16602 37.793 7.16602Z" fill="black"/>
</svg>
